<?xml version="1.0" encoding="UTF-8"?>
<svg xmlns="http://www.w3.org/2000/svg" xmlns:xlink="http://www.w3.org/1999/xlink" width="250.666667" height="137.333333" viewBox="0 0 250.666667 137.333333" version="1.1">
<g id="surface1">
<path style="fill-rule:nonzero;fill:rgb(69.803923%,85.09804%,100%);fill-opacity:1;stroke-width:1;stroke-linecap:round;stroke-linejoin:round;stroke:rgb(0%,0%,0%);stroke-opacity:1;stroke-miterlimit:10;" d="M 72.282227 111.102539 L 98.280273 111.102539 L 98.280273 131.100586 L 72.282227 131.100586 Z M 72.282227 111.102539 " transform="matrix(1.333333,0,0,1.333333,-17.333333,-92)"/>
<path style=" stroke:none;fill-rule:nonzero;fill:rgb(0%,0%,0%);fill-opacity:1;" d="M 93.144531 70.050781 C 92.5 70.863281 92.351562 71.007812 92.164062 71.007812 C 92.039062 71.007812 91.957031 70.925781 91.957031 70.800781 C 91.957031 70.65625 92.164062 69.925781 92.351562 69.300781 C 92.726562 68.175781 92.9375 67.28125 92.9375 66.988281 C 92.9375 66.53125 92.707031 66.175781 92.164062 66.175781 C 91.414062 66.175781 90.476562 66.945312 89.394531 68.71875 L 90.851562 63.34375 L 90.769531 63.28125 C 90.0625 63.425781 89.601562 63.507812 88.875 63.59375 L 88.875 63.78125 L 89.207031 63.78125 C 89.414062 63.78125 89.707031 63.863281 89.707031 64.070312 C 89.707031 64.238281 89.644531 64.445312 89.539062 64.820312 L 87.789062 71.46875 L 88.6875 71.46875 C 89.164062 69.613281 89.351562 69.195312 89.832031 68.46875 C 90.457031 67.507812 91.226562 66.78125 91.664062 66.78125 C 91.9375 66.78125 92 66.90625 92 67.09375 C 92 67.132812 91.957031 67.300781 91.914062 67.488281 L 91.25 69.96875 C 91.101562 70.550781 91.019531 70.925781 91.019531 71.070312 C 91.019531 71.382812 91.226562 71.570312 91.539062 71.570312 C 92.164062 71.570312 92.5625 71.257812 93.289062 70.21875 Z M 93.144531 70.050781 "/>
<path style=" stroke:none;fill-rule:nonzero;fill:rgb(0%,0%,0%);fill-opacity:1;" d="M 95.9375 72.050781 L 95.289062 72.050781 L 95.519531 71.21875 C 95.519531 71.195312 95.519531 71.15625 95.519531 71.15625 C 95.519531 71.113281 95.5 71.09375 95.457031 71.09375 C 95.414062 71.09375 95.375 71.113281 95.332031 71.175781 C 95.039062 71.613281 94.519531 71.988281 94.269531 72.050781 C 94.082031 72.09375 94.019531 72.15625 94.019531 72.257812 C 94.019531 72.257812 94.019531 72.28125 94.019531 72.300781 L 94.625 72.300781 L 94 74.675781 C 93.9375 74.925781 93.875 75.175781 93.875 75.257812 C 93.875 75.46875 94.019531 75.550781 94.226562 75.550781 C 94.644531 75.550781 94.894531 75.320312 95.375 74.59375 L 95.269531 74.53125 C 94.875 75.03125 94.75 75.15625 94.625 75.15625 C 94.5625 75.15625 94.5 75.132812 94.5 75.03125 C 94.5 75.007812 94.519531 74.945312 94.519531 74.925781 L 95.207031 72.300781 L 95.894531 72.300781 Z M 95.9375 72.050781 "/>
<path style=" stroke:none;fill-rule:nonzero;fill:rgb(0%,0%,0%);fill-opacity:1;" d="M 100.515625 73.71875 L 100.515625 73.175781 L 96.472656 73.175781 L 96.472656 73.71875 Z M 100.515625 73.71875 "/>
<path style=" stroke:none;fill-rule:nonzero;fill:rgb(0%,0%,0%);fill-opacity:1;" d="M 104.332031 75.46875 L 104.332031 75.34375 C 103.726562 75.34375 103.582031 75.195312 103.582031 74.863281 L 103.582031 70.09375 L 103.496094 70.050781 L 102.082031 70.78125 L 102.082031 70.90625 L 102.289062 70.820312 C 102.433594 70.757812 102.558594 70.71875 102.644531 70.71875 C 102.808594 70.71875 102.894531 70.84375 102.894531 71.113281 L 102.894531 74.71875 C 102.894531 75.15625 102.726562 75.320312 102.121094 75.34375 L 102.121094 75.46875 Z M 104.332031 75.46875 "/>
<path style="fill-rule:nonzero;fill:rgb(69.803923%,85.09804%,100%);fill-opacity:1;stroke-width:1;stroke-linecap:round;stroke-linejoin:round;stroke:rgb(0%,0%,0%);stroke-opacity:1;stroke-miterlimit:10;" d="M 122.895508 111.102539 L 148.893555 111.102539 L 148.893555 131.100586 L 122.895508 131.100586 Z M 122.895508 111.102539 " transform="matrix(1.333333,0,0,1.333333,-17.333333,-92)"/>
<path style=" stroke:none;fill-rule:nonzero;fill:rgb(0%,0%,0%);fill-opacity:1;" d="M 165.144531 69.382812 C 164.5 70.195312 164.351562 70.34375 164.164062 70.34375 C 164.039062 70.34375 163.957031 70.257812 163.957031 70.132812 C 163.957031 69.988281 164.164062 69.257812 164.351562 68.632812 C 164.726562 67.507812 164.9375 66.613281 164.9375 66.320312 C 164.9375 65.863281 164.707031 65.507812 164.164062 65.507812 C 163.414062 65.507812 162.476562 66.28125 161.394531 68.050781 L 162.851562 62.675781 L 162.769531 62.613281 C 162.0625 62.757812 161.601562 62.84375 160.875 62.925781 L 160.875 63.113281 L 161.207031 63.113281 C 161.414062 63.113281 161.707031 63.195312 161.707031 63.40625 C 161.707031 63.570312 161.644531 63.78125 161.539062 64.15625 L 159.789062 70.800781 L 160.6875 70.800781 C 161.164062 68.945312 161.351562 68.53125 161.832031 67.800781 C 162.457031 66.84375 163.226562 66.113281 163.664062 66.113281 C 163.9375 66.113281 164 66.238281 164 66.425781 C 164 66.46875 163.957031 66.632812 163.914062 66.820312 L 163.25 69.300781 C 163.101562 69.882812 163.019531 70.257812 163.019531 70.40625 C 163.019531 70.71875 163.226562 70.90625 163.539062 70.90625 C 164.164062 70.90625 164.5625 70.59375 165.289062 69.550781 Z M 165.144531 69.382812 "/>
<path style=" stroke:none;fill-rule:nonzero;fill:rgb(0%,0%,0%);fill-opacity:1;" d="M 168.332031 72.132812 L 167.582031 72.132812 L 167.832031 71.175781 C 167.851562 71.15625 167.851562 71.113281 167.851562 71.113281 C 167.851562 71.070312 167.8125 71.03125 167.769531 71.03125 C 167.726562 71.03125 167.664062 71.070312 167.625 71.113281 C 167.289062 71.632812 166.6875 72.09375 166.394531 72.15625 C 166.164062 72.195312 166.082031 72.28125 166.082031 72.382812 C 166.082031 72.382812 166.082031 72.40625 166.101562 72.445312 L 166.789062 72.445312 L 166.0625 75.195312 C 166 75.507812 165.914062 75.78125 165.914062 75.882812 C 165.914062 76.132812 166.101562 76.238281 166.351562 76.238281 C 166.832031 76.238281 167.125 75.96875 167.6875 75.113281 L 167.5625 75.050781 C 167.101562 75.632812 166.957031 75.78125 166.8125 75.78125 C 166.726562 75.78125 166.664062 75.757812 166.664062 75.632812 C 166.664062 75.59375 166.664062 75.53125 166.6875 75.507812 L 167.5 72.445312 L 168.269531 72.445312 Z M 168.332031 72.132812 "/>
<path style="fill-rule:nonzero;fill:rgb(69.803923%,85.09804%,100%);fill-opacity:1;stroke-width:1;stroke-linecap:round;stroke-linejoin:round;stroke:rgb(0%,0%,0%);stroke-opacity:1;stroke-miterlimit:10;" d="M 173.804688 111.102539 L 200.464844 111.102539 L 200.464844 131.100586 L 173.804688 131.100586 Z M 173.804688 111.102539 " transform="matrix(1.333333,0,0,1.333333,-17.333333,-92)"/>
<path style=" stroke:none;fill-rule:nonzero;fill:rgb(0%,0%,0%);fill-opacity:1;" d="M 228.953125 70.050781 C 228.308594 70.863281 228.160156 71.007812 227.972656 71.007812 C 227.847656 71.007812 227.765625 70.925781 227.765625 70.800781 C 227.765625 70.65625 227.972656 69.925781 228.160156 69.300781 C 228.535156 68.175781 228.746094 67.28125 228.746094 66.988281 C 228.746094 66.53125 228.515625 66.175781 227.972656 66.175781 C 227.222656 66.175781 226.285156 66.945312 225.203125 68.71875 L 226.660156 63.34375 L 226.578125 63.28125 C 225.871094 63.425781 225.410156 63.507812 224.683594 63.59375 L 224.683594 63.78125 L 225.015625 63.78125 C 225.222656 63.78125 225.515625 63.863281 225.515625 64.070312 C 225.515625 64.238281 225.453125 64.445312 225.347656 64.820312 L 223.597656 71.46875 L 224.496094 71.46875 C 224.972656 69.613281 225.160156 69.195312 225.640625 68.46875 C 226.265625 67.507812 227.035156 66.78125 227.472656 66.78125 C 227.746094 66.78125 227.808594 66.90625 227.808594 67.09375 C 227.808594 67.132812 227.765625 67.300781 227.722656 67.488281 L 227.058594 69.96875 C 226.910156 70.550781 226.828125 70.925781 226.828125 71.070312 C 226.828125 71.382812 227.035156 71.570312 227.347656 71.570312 C 227.972656 71.570312 228.371094 71.257812 229.097656 70.21875 Z M 228.953125 70.050781 "/>
<path style=" stroke:none;fill-rule:nonzero;fill:rgb(0%,0%,0%);fill-opacity:1;" d="M 231.746094 72.050781 L 231.097656 72.050781 L 231.328125 71.21875 C 231.328125 71.195312 231.328125 71.15625 231.328125 71.15625 C 231.328125 71.113281 231.308594 71.09375 231.265625 71.09375 C 231.222656 71.09375 231.183594 71.113281 231.140625 71.175781 C 230.847656 71.613281 230.328125 71.988281 230.078125 72.050781 C 229.890625 72.09375 229.828125 72.15625 229.828125 72.257812 C 229.828125 72.257812 229.828125 72.28125 229.828125 72.300781 L 230.433594 72.300781 L 229.808594 74.675781 C 229.746094 74.925781 229.683594 75.175781 229.683594 75.257812 C 229.683594 75.46875 229.828125 75.550781 230.035156 75.550781 C 230.453125 75.550781 230.703125 75.320312 231.183594 74.59375 L 231.078125 74.53125 C 230.683594 75.03125 230.558594 75.15625 230.433594 75.15625 C 230.371094 75.15625 230.308594 75.132812 230.308594 75.03125 C 230.308594 75.007812 230.328125 74.945312 230.328125 74.925781 L 231.015625 72.300781 L 231.703125 72.300781 Z M 231.746094 72.050781 "/>
<path style=" stroke:none;fill-rule:nonzero;fill:rgb(0%,0%,0%);fill-opacity:1;" d="M 236.324219 73.71875 L 236.324219 73.175781 L 234.550781 73.175781 L 234.550781 71.425781 L 234.03125 71.425781 L 234.03125 73.175781 L 232.28125 73.175781 L 232.28125 73.71875 L 234.03125 73.71875 L 234.03125 75.46875 L 234.550781 75.46875 L 234.550781 73.71875 Z M 236.324219 73.71875 "/>
<path style=" stroke:none;fill-rule:nonzero;fill:rgb(0%,0%,0%);fill-opacity:1;" d="M 240.140625 75.46875 L 240.140625 75.34375 C 239.535156 75.34375 239.390625 75.195312 239.390625 74.863281 L 239.390625 70.09375 L 239.304688 70.050781 L 237.890625 70.78125 L 237.890625 70.90625 L 238.097656 70.820312 C 238.242188 70.757812 238.367188 70.71875 238.453125 70.71875 C 238.617188 70.71875 238.703125 70.84375 238.703125 71.113281 L 238.703125 74.71875 C 238.703125 75.15625 238.535156 75.320312 237.929688 75.34375 L 237.929688 75.46875 Z M 240.140625 75.46875 "/>
<path style="fill-rule:nonzero;fill:rgb(40.000001%,74.901962%,100%);fill-opacity:1;stroke-width:1;stroke-linecap:round;stroke-linejoin:round;stroke:rgb(0%,0%,0%);stroke-opacity:1;stroke-miterlimit:10;" d="M 72.282227 74.000977 L 98.280273 74.000977 L 98.280273 93.999023 L 72.282227 93.999023 Z M 72.282227 74.000977 " transform="matrix(1.333333,0,0,1.333333,-17.333333,-92)"/>
<path style=" stroke:none;fill-rule:nonzero;fill:rgb(0%,0%,0%);fill-opacity:1;" d="M 88.625 17.75 C 88.457031 16.917969 88.3125 16.707031 88.019531 16.707031 C 87.726562 16.707031 87.332031 16.792969 86.601562 17.0625 L 86.476562 17.105469 L 86.519531 17.292969 L 86.726562 17.230469 C 86.957031 17.167969 87.101562 17.144531 87.1875 17.144531 C 87.5 17.144531 87.582031 17.25 87.75 17.957031 L 88.082031 19.457031 L 87.101562 20.855469 C 86.851562 21.207031 86.625 21.4375 86.476562 21.4375 C 86.414062 21.4375 86.289062 21.394531 86.164062 21.332031 C 86.019531 21.25 85.894531 21.1875 85.789062 21.1875 C 85.5625 21.1875 85.375 21.394531 85.375 21.625 C 85.375 21.9375 85.601562 22.125 85.976562 22.125 C 86.351562 22.125 86.601562 22.019531 87.125 21.3125 L 88.1875 19.894531 L 88.519531 21.3125 C 88.664062 21.917969 88.851562 22.125 89.226562 22.125 C 89.6875 22.125 90 21.855469 90.707031 20.769531 L 90.519531 20.644531 C 90.414062 20.769531 90.375 20.855469 90.269531 21 C 90 21.355469 89.851562 21.480469 89.707031 21.480469 C 89.539062 21.480469 89.4375 21.3125 89.351562 20.980469 L 88.957031 19.375 C 88.894531 19.082031 88.851562 18.917969 88.851562 18.832031 C 89.394531 17.917969 89.832031 17.375 90.039062 17.375 C 90.332031 17.375 90.4375 17.582031 90.664062 17.582031 C 90.894531 17.582031 91.0625 17.394531 91.0625 17.144531 C 91.0625 16.894531 90.875 16.707031 90.582031 16.707031 C 90.0625 16.707031 89.601562 17.144531 88.769531 18.417969 Z M 88.625 17.75 "/>
<path style=" stroke:none;fill-rule:nonzero;fill:rgb(0%,0%,0%);fill-opacity:1;" d="M 93.410156 22.582031 L 92.761719 22.582031 L 92.992188 21.75 C 92.992188 21.730469 92.992188 21.6875 92.992188 21.6875 C 92.992188 21.644531 92.972656 21.625 92.929688 21.625 C 92.886719 21.625 92.847656 21.644531 92.804688 21.707031 C 92.511719 22.144531 91.992188 22.519531 91.742188 22.582031 C 91.554688 22.625 91.492188 22.6875 91.492188 22.792969 C 91.492188 22.792969 91.492188 22.8125 91.492188 22.832031 L 92.097656 22.832031 L 91.472656 25.207031 C 91.410156 25.457031 91.347656 25.707031 91.347656 25.792969 C 91.347656 26 91.492188 26.082031 91.699219 26.082031 C 92.117188 26.082031 92.367188 25.855469 92.847656 25.125 L 92.742188 25.0625 C 92.347656 25.5625 92.222656 25.6875 92.097656 25.6875 C 92.035156 25.6875 91.972656 25.667969 91.972656 25.5625 C 91.972656 25.542969 91.992188 25.480469 91.992188 25.457031 L 92.679688 22.832031 L 93.367188 22.832031 Z M 93.410156 22.582031 "/>
<path style=" stroke:none;fill-rule:nonzero;fill:rgb(0%,0%,0%);fill-opacity:1;" d="M 97.988281 24.25 L 97.988281 23.707031 L 93.945312 23.707031 L 93.945312 24.25 Z M 97.988281 24.25 "/>
<path style=" stroke:none;fill-rule:nonzero;fill:rgb(0%,0%,0%);fill-opacity:1;" d="M 101.804688 26 L 101.804688 25.875 C 101.199219 25.875 101.054688 25.730469 101.054688 25.394531 L 101.054688 20.625 L 100.972656 20.582031 L 99.554688 21.3125 L 99.554688 21.4375 L 99.761719 21.355469 C 99.910156 21.292969 100.035156 21.25 100.117188 21.25 C 100.285156 21.25 100.367188 21.375 100.367188 21.644531 L 100.367188 25.25 C 100.367188 25.6875 100.199219 25.855469 99.597656 25.875 L 99.597656 26 Z M 101.804688 26 "/>
<path style="fill-rule:nonzero;fill:rgb(40.000001%,74.901962%,100%);fill-opacity:1;stroke-width:1;stroke-linecap:round;stroke-linejoin:round;stroke:rgb(0%,0%,0%);stroke-opacity:1;stroke-miterlimit:10;" d="M 122.895508 74.000977 L 148.893555 74.000977 L 148.893555 93.999023 L 122.895508 93.999023 Z M 122.895508 74.000977 " transform="matrix(1.333333,0,0,1.333333,-17.333333,-92)"/>
<path style=" stroke:none;fill-rule:nonzero;fill:rgb(0%,0%,0%);fill-opacity:1;" d="M 163 17.75 C 162.832031 16.917969 162.6875 16.707031 162.394531 16.707031 C 162.101562 16.707031 161.707031 16.792969 160.976562 17.0625 L 160.851562 17.105469 L 160.894531 17.292969 L 161.101562 17.230469 C 161.332031 17.167969 161.476562 17.144531 161.5625 17.144531 C 161.875 17.144531 161.957031 17.25 162.125 17.957031 L 162.457031 19.457031 L 161.476562 20.855469 C 161.226562 21.207031 161 21.4375 160.851562 21.4375 C 160.789062 21.4375 160.664062 21.394531 160.539062 21.332031 C 160.394531 21.25 160.269531 21.1875 160.164062 21.1875 C 159.9375 21.1875 159.75 21.394531 159.75 21.625 C 159.75 21.9375 159.976562 22.125 160.351562 22.125 C 160.726562 22.125 160.976562 22.019531 161.5 21.3125 L 162.5625 19.894531 L 162.894531 21.3125 C 163.039062 21.917969 163.226562 22.125 163.601562 22.125 C 164.0625 22.125 164.375 21.855469 165.082031 20.769531 L 164.894531 20.644531 C 164.789062 20.769531 164.75 20.855469 164.644531 21 C 164.375 21.355469 164.226562 21.480469 164.082031 21.480469 C 163.914062 21.480469 163.8125 21.3125 163.726562 20.980469 L 163.332031 19.375 C 163.269531 19.082031 163.226562 18.917969 163.226562 18.832031 C 163.769531 17.917969 164.207031 17.375 164.414062 17.375 C 164.707031 17.375 164.8125 17.582031 165.039062 17.582031 C 165.269531 17.582031 165.4375 17.394531 165.4375 17.144531 C 165.4375 16.894531 165.25 16.707031 164.957031 16.707031 C 164.4375 16.707031 163.976562 17.144531 163.144531 18.417969 Z M 163 17.75 "/>
<path style=" stroke:none;fill-rule:nonzero;fill:rgb(0%,0%,0%);fill-opacity:1;" d="M 167.785156 22.582031 L 167.140625 22.582031 L 167.367188 21.75 C 167.367188 21.730469 167.367188 21.6875 167.367188 21.6875 C 167.367188 21.644531 167.347656 21.625 167.304688 21.625 C 167.265625 21.625 167.222656 21.644531 167.179688 21.707031 C 166.890625 22.144531 166.367188 22.519531 166.117188 22.582031 C 165.929688 22.625 165.867188 22.6875 165.867188 22.792969 C 165.867188 22.792969 165.867188 22.8125 165.867188 22.832031 L 166.472656 22.832031 L 165.847656 25.207031 C 165.785156 25.457031 165.722656 25.707031 165.722656 25.792969 C 165.722656 26 165.867188 26.082031 166.078125 26.082031 C 166.492188 26.082031 166.742188 25.855469 167.222656 25.125 L 167.117188 25.0625 C 166.722656 25.5625 166.597656 25.6875 166.472656 25.6875 C 166.410156 25.6875 166.347656 25.667969 166.347656 25.5625 C 166.347656 25.542969 166.367188 25.480469 166.367188 25.457031 L 167.054688 22.832031 L 167.742188 22.832031 Z M 167.785156 22.582031 "/>
<path style="fill-rule:nonzero;fill:rgb(40.000001%,74.901962%,100%);fill-opacity:1;stroke-width:1;stroke-linecap:round;stroke-linejoin:round;stroke:rgb(0%,0%,0%);stroke-opacity:1;stroke-miterlimit:10;" d="M 173.804688 74.000977 L 199.805664 74.000977 L 199.805664 93.999023 L 173.804688 93.999023 Z M 173.804688 74.000977 " transform="matrix(1.333333,0,0,1.333333,-17.333333,-92)"/>
<path style=" stroke:none;fill-rule:nonzero;fill:rgb(0%,0%,0%);fill-opacity:1;" d="M 226.183594 17.75 C 226.015625 16.917969 225.871094 16.707031 225.578125 16.707031 C 225.285156 16.707031 224.890625 16.792969 224.160156 17.0625 L 224.035156 17.105469 L 224.078125 17.292969 L 224.285156 17.230469 C 224.515625 17.167969 224.660156 17.144531 224.746094 17.144531 C 225.058594 17.144531 225.140625 17.25 225.308594 17.957031 L 225.640625 19.457031 L 224.660156 20.855469 C 224.410156 21.207031 224.183594 21.4375 224.035156 21.4375 C 223.972656 21.4375 223.847656 21.394531 223.722656 21.332031 C 223.578125 21.25 223.453125 21.1875 223.347656 21.1875 C 223.121094 21.1875 222.933594 21.394531 222.933594 21.625 C 222.933594 21.9375 223.160156 22.125 223.535156 22.125 C 223.910156 22.125 224.160156 22.019531 224.683594 21.3125 L 225.746094 19.894531 L 226.078125 21.3125 C 226.222656 21.917969 226.410156 22.125 226.785156 22.125 C 227.246094 22.125 227.558594 21.855469 228.265625 20.769531 L 228.078125 20.644531 C 227.972656 20.769531 227.933594 20.855469 227.828125 21 C 227.558594 21.355469 227.410156 21.480469 227.265625 21.480469 C 227.097656 21.480469 226.996094 21.3125 226.910156 20.980469 L 226.515625 19.375 C 226.453125 19.082031 226.410156 18.917969 226.410156 18.832031 C 226.953125 17.917969 227.390625 17.375 227.597656 17.375 C 227.890625 17.375 227.996094 17.582031 228.222656 17.582031 C 228.453125 17.582031 228.621094 17.394531 228.621094 17.144531 C 228.621094 16.894531 228.433594 16.707031 228.140625 16.707031 C 227.621094 16.707031 227.160156 17.144531 226.328125 18.417969 Z M 226.183594 17.75 "/>
<path style=" stroke:none;fill-rule:nonzero;fill:rgb(0%,0%,0%);fill-opacity:1;" d="M 230.96875 22.582031 L 230.324219 22.582031 L 230.550781 21.75 C 230.550781 21.730469 230.550781 21.6875 230.550781 21.6875 C 230.550781 21.644531 230.53125 21.625 230.488281 21.625 C 230.449219 21.625 230.40625 21.644531 230.363281 21.707031 C 230.074219 22.144531 229.550781 22.519531 229.300781 22.582031 C 229.113281 22.625 229.050781 22.6875 229.050781 22.792969 C 229.050781 22.792969 229.050781 22.8125 229.050781 22.832031 L 229.65625 22.832031 L 229.03125 25.207031 C 228.96875 25.457031 228.90625 25.707031 228.90625 25.792969 C 228.90625 26 229.050781 26.082031 229.261719 26.082031 C 229.675781 26.082031 229.925781 25.855469 230.40625 25.125 L 230.300781 25.0625 C 229.90625 25.5625 229.78125 25.6875 229.65625 25.6875 C 229.59375 25.6875 229.53125 25.667969 229.53125 25.5625 C 229.53125 25.542969 229.550781 25.480469 229.550781 25.457031 L 230.238281 22.832031 L 230.925781 22.832031 Z M 230.96875 22.582031 "/>
<path style=" stroke:none;fill-rule:nonzero;fill:rgb(0%,0%,0%);fill-opacity:1;" d="M 235.546875 24.25 L 235.546875 23.707031 L 233.777344 23.707031 L 233.777344 21.957031 L 233.253906 21.957031 L 233.253906 23.707031 L 231.503906 23.707031 L 231.503906 24.25 L 233.253906 24.25 L 233.253906 26 L 233.777344 26 L 233.777344 24.25 Z M 235.546875 24.25 "/>
<path style=" stroke:none;fill-rule:nonzero;fill:rgb(0%,0%,0%);fill-opacity:1;" d="M 239.363281 26 L 239.363281 25.875 C 238.757812 25.875 238.613281 25.730469 238.613281 25.394531 L 238.613281 20.625 L 238.53125 20.582031 L 237.113281 21.3125 L 237.113281 21.4375 L 237.320312 21.355469 C 237.46875 21.292969 237.59375 21.25 237.675781 21.25 C 237.84375 21.25 237.925781 21.375 237.925781 21.644531 L 237.925781 25.25 C 237.925781 25.6875 237.757812 25.855469 237.15625 25.875 L 237.15625 26 Z M 239.363281 26 "/>
<path style="fill:none;stroke-width:1;stroke-linecap:round;stroke-linejoin:round;stroke:rgb(0%,0%,0%);stroke-opacity:1;stroke-miterlimit:10;" d="M 98.280273 121.101562 L 116.992188 121.101562 " transform="matrix(1.333333,0,0,1.333333,-17.333333,-92)"/>
<path style="fill:none;stroke-width:1;stroke-linecap:butt;stroke-linejoin:miter;stroke:rgb(0%,0%,0%);stroke-opacity:1;stroke-miterlimit:10;" d="M 120.991211 121.101562 L 116.992188 121.101562 M 116.992188 119.601562 L 120.991211 121.101562 L 116.992188 122.601562 " transform="matrix(1.333333,0,0,1.333333,-17.333333,-92)"/>
<path style="fill:none;stroke-width:1;stroke-linecap:round;stroke-linejoin:round;stroke:rgb(0%,0%,0%);stroke-opacity:1;stroke-miterlimit:10;" d="M 148.893555 121.101562 L 167.907227 121.101562 " transform="matrix(1.333333,0,0,1.333333,-17.333333,-92)"/>
<path style="fill:none;stroke-width:1;stroke-linecap:butt;stroke-linejoin:miter;stroke:rgb(0%,0%,0%);stroke-opacity:1;stroke-miterlimit:10;" d="M 171.90625 121.101562 L 167.907227 121.101562 M 167.907227 119.601562 L 171.90625 121.101562 L 167.907227 122.601562 " transform="matrix(1.333333,0,0,1.333333,-17.333333,-92)"/>
<path style="fill:none;stroke-width:1;stroke-linecap:round;stroke-linejoin:round;stroke:rgb(0%,0%,0%);stroke-opacity:1;stroke-miterlimit:10;" d="M 85.28125 111.102539 L 85.28125 99.899414 " transform="matrix(1.333333,0,0,1.333333,-17.333333,-92)"/>
<path style="fill:none;stroke-width:1;stroke-linecap:butt;stroke-linejoin:miter;stroke:rgb(0%,0%,0%);stroke-opacity:1;stroke-miterlimit:10;" d="M 85.28125 95.897461 L 85.28125 99.899414 M 83.78125 99.899414 L 85.28125 95.897461 L 86.78125 99.899414 " transform="matrix(1.333333,0,0,1.333333,-17.333333,-92)"/>
<path style="fill:none;stroke-width:1;stroke-linecap:round;stroke-linejoin:round;stroke:rgb(0%,0%,0%);stroke-opacity:1;stroke-miterlimit:10;" d="M 135.894531 111.102539 L 135.894531 99.899414 " transform="matrix(1.333333,0,0,1.333333,-17.333333,-92)"/>
<path style="fill:none;stroke-width:1;stroke-linecap:butt;stroke-linejoin:miter;stroke:rgb(0%,0%,0%);stroke-opacity:1;stroke-miterlimit:10;" d="M 135.894531 95.897461 L 135.894531 99.899414 M 134.394531 99.899414 L 135.894531 95.897461 L 137.394531 99.899414 " transform="matrix(1.333333,0,0,1.333333,-17.333333,-92)"/>
<path style="fill:none;stroke-width:1;stroke-linecap:round;stroke-linejoin:round;stroke:rgb(0%,0%,0%);stroke-opacity:1;stroke-miterlimit:10;" d="M 187.046875 111.102539 L 186.950195 99.899414 " transform="matrix(1.333333,0,0,1.333333,-17.333333,-92)"/>
<path style="fill:none;stroke-width:1;stroke-linecap:butt;stroke-linejoin:miter;stroke:rgb(0%,0%,0%);stroke-opacity:1;stroke-miterlimit:10;" d="M 186.90918 95.897461 L 186.950195 99.899414 M 185.450195 99.914062 L 186.90918 95.897461 L 188.450195 99.887695 " transform="matrix(1.333333,0,0,1.333333,-17.333333,-92)"/>
<path style=" stroke:none;fill-rule:nonzero;fill:rgb(0%,0%,0%);fill-opacity:1;" d="M 9.949219 56.90625 L 9.949219 65.46875 L 10.949219 65.46875 L 10.949219 61.46875 L 15.90625 61.46875 L 15.90625 65.46875 L 16.886719 65.46875 L 16.886719 56.90625 L 15.90625 56.90625 L 15.90625 60.613281 L 10.949219 60.613281 L 10.949219 56.90625 Z M 9.949219 56.90625 "/>
<path style=" stroke:none;fill-rule:nonzero;fill:rgb(0%,0%,0%);fill-opacity:1;" d="M 19.277344 56.925781 C 19.066406 56.925781 18.902344 56.988281 18.753906 57.132812 C 18.609375 57.238281 18.546875 57.425781 18.546875 57.632812 C 18.546875 57.84375 18.609375 58.007812 18.753906 58.15625 C 18.902344 58.28125 19.066406 58.34375 19.277344 58.34375 C 19.484375 58.34375 19.652344 58.28125 19.777344 58.15625 C 19.921875 58.007812 20.003906 57.84375 20.003906 57.632812 C 20.003906 57.425781 19.921875 57.238281 19.777344 57.132812 C 19.652344 56.988281 19.484375 56.925781 19.277344 56.925781 Z M 18.796875 59.257812 L 18.796875 65.46875 L 19.753906 65.46875 L 19.753906 59.257812 Z M 18.796875 59.257812 "/>
<path style=" stroke:none;fill-rule:nonzero;fill:rgb(0%,0%,0%);fill-opacity:1;" d="M 26.140625 56.738281 L 26.140625 60.40625 C 25.660156 59.53125 24.972656 59.09375 24.078125 59.09375 C 23.203125 59.09375 22.515625 59.425781 22.015625 60.09375 C 21.535156 60.695312 21.308594 61.425781 21.308594 62.34375 C 21.308594 63.28125 21.535156 64.050781 22.015625 64.65625 C 22.515625 65.300781 23.222656 65.632812 24.140625 65.632812 C 25.058594 65.632812 25.765625 65.238281 26.203125 64.445312 L 26.203125 65.46875 L 27.097656 65.46875 L 27.097656 56.738281 Z M 24.285156 59.882812 C 24.847656 59.882812 25.285156 60.113281 25.640625 60.550781 C 25.972656 61.007812 26.160156 61.59375 26.160156 62.320312 L 26.160156 62.425781 C 26.160156 63.132812 25.996094 63.695312 25.703125 64.113281 C 25.347656 64.613281 24.871094 64.84375 24.246094 64.84375 C 23.578125 64.84375 23.078125 64.59375 22.746094 64.113281 C 22.433594 63.675781 22.285156 63.09375 22.285156 62.34375 C 22.285156 61.613281 22.433594 61.03125 22.746094 60.613281 C 23.078125 60.132812 23.597656 59.882812 24.285156 59.882812 Z M 24.285156 59.882812 "/>
<path style=" stroke:none;fill-rule:nonzero;fill:rgb(0%,0%,0%);fill-opacity:1;" d="M 33.171875 56.738281 L 33.171875 60.40625 C 32.691406 59.53125 32.003906 59.09375 31.109375 59.09375 C 30.234375 59.09375 29.546875 59.425781 29.046875 60.09375 C 28.566406 60.695312 28.339844 61.425781 28.339844 62.34375 C 28.339844 63.28125 28.566406 64.050781 29.046875 64.65625 C 29.546875 65.300781 30.253906 65.632812 31.171875 65.632812 C 32.089844 65.632812 32.796875 65.238281 33.234375 64.445312 L 33.234375 65.46875 L 34.128906 65.46875 L 34.128906 56.738281 Z M 31.316406 59.882812 C 31.878906 59.882812 32.316406 60.113281 32.671875 60.550781 C 33.003906 61.007812 33.191406 61.59375 33.191406 62.320312 L 33.191406 62.425781 C 33.191406 63.132812 33.027344 63.695312 32.734375 64.113281 C 32.378906 64.613281 31.902344 64.84375 31.277344 64.84375 C 30.609375 64.84375 30.109375 64.59375 29.777344 64.113281 C 29.464844 63.675781 29.316406 63.09375 29.316406 62.34375 C 29.316406 61.613281 29.464844 61.03125 29.777344 60.613281 C 30.109375 60.132812 30.628906 59.882812 31.316406 59.882812 Z M 31.316406 59.882812 "/>
<path style=" stroke:none;fill-rule:nonzero;fill:rgb(0%,0%,0%);fill-opacity:1;" d="M 38.164062 59.09375 C 37.265625 59.09375 36.558594 59.425781 36.039062 60.070312 C 35.515625 60.675781 35.246094 61.445312 35.246094 62.363281 C 35.246094 63.363281 35.515625 64.15625 36.078125 64.757812 C 36.601562 65.34375 37.328125 65.632812 38.203125 65.632812 C 39.015625 65.632812 39.664062 65.40625 40.183594 64.945312 C 40.601562 64.550781 40.890625 64.070312 41.015625 63.46875 L 40.058594 63.46875 C 39.914062 63.90625 39.703125 64.238281 39.433594 64.445312 C 39.121094 64.695312 38.703125 64.820312 38.203125 64.820312 C 37.621094 64.820312 37.140625 64.632812 36.808594 64.257812 C 36.476562 63.863281 36.308594 63.320312 36.246094 62.632812 L 41.140625 62.632812 C 41.121094 61.550781 40.890625 60.695312 40.433594 60.113281 C 39.914062 59.425781 39.164062 59.09375 38.164062 59.09375 Z M 38.203125 59.90625 C 39.371094 59.90625 40.039062 60.550781 40.140625 61.882812 L 36.265625 61.882812 C 36.328125 61.28125 36.515625 60.800781 36.871094 60.445312 C 37.203125 60.070312 37.640625 59.90625 38.203125 59.90625 Z M 38.203125 59.90625 "/>
<path style=" stroke:none;fill-rule:nonzero;fill:rgb(0%,0%,0%);fill-opacity:1;" d="M 45.175781 59.09375 C 44.78125 59.09375 44.40625 59.195312 44.074219 59.382812 C 43.71875 59.570312 43.449219 59.820312 43.238281 60.175781 L 43.238281 59.257812 L 42.28125 59.257812 L 42.28125 65.46875 L 43.238281 65.46875 L 43.238281 61.71875 C 43.28125 61.15625 43.449219 60.71875 43.78125 60.382812 C 44.09375 60.070312 44.46875 59.90625 44.90625 59.90625 C 45.988281 59.90625 46.53125 60.507812 46.53125 61.71875 L 46.53125 65.46875 L 47.488281 65.46875 L 47.488281 61.65625 C 47.488281 59.945312 46.71875 59.09375 45.175781 59.09375 Z M 45.175781 59.09375 "/>
<path style=" stroke:none;fill-rule:nonzero;fill:rgb(0%,0%,0%);fill-opacity:1;" d="M 17.628906 76.425781 C 16.941406 76.425781 16.359375 76.59375 15.921875 76.90625 C 15.464844 77.21875 15.234375 77.613281 15.234375 78.15625 C 15.234375 78.675781 15.464844 79.070312 15.941406 79.363281 C 16.234375 79.550781 16.734375 79.738281 17.484375 79.90625 C 18.152344 80.070312 18.589844 80.21875 18.796875 80.300781 C 19.171875 80.488281 19.378906 80.757812 19.378906 81.113281 C 19.378906 81.800781 18.816406 82.15625 17.714844 82.15625 C 17.191406 82.15625 16.796875 82.070312 16.527344 81.882812 C 16.253906 81.65625 16.089844 81.320312 16.003906 80.820312 L 15.066406 80.820312 C 15.214844 82.257812 16.109375 82.96875 17.734375 82.96875 C 19.484375 82.96875 20.359375 82.320312 20.359375 81.050781 C 20.359375 80.507812 20.109375 80.09375 19.628906 79.78125 C 19.296875 79.570312 18.777344 79.382812 18.027344 79.195312 C 17.402344 79.03125 16.964844 78.90625 16.734375 78.800781 C 16.378906 78.613281 16.214844 78.382812 16.214844 78.113281 C 16.214844 77.84375 16.339844 77.632812 16.609375 77.46875 C 16.859375 77.300781 17.191406 77.238281 17.628906 77.238281 C 18.109375 77.238281 18.503906 77.320312 18.753906 77.53125 C 19.003906 77.695312 19.152344 77.96875 19.234375 78.363281 L 20.171875 78.363281 C 20.003906 77.070312 19.171875 76.425781 17.628906 76.425781 Z M 17.628906 76.425781 "/>
<path style=" stroke:none;fill-rule:nonzero;fill:rgb(0%,0%,0%);fill-opacity:1;" d="M 23.148438 74.59375 L 22.210938 74.988281 L 22.210938 76.59375 L 20.960938 76.59375 L 20.960938 77.40625 L 22.210938 77.40625 L 22.210938 81.34375 C 22.210938 81.820312 22.292969 82.15625 22.503906 82.40625 C 22.710938 82.675781 23.085938 82.800781 23.605469 82.800781 L 24.523438 82.800781 L 24.523438 81.988281 L 23.730469 81.988281 C 23.523438 81.988281 23.378906 81.945312 23.292969 81.84375 C 23.191406 81.738281 23.148438 81.570312 23.148438 81.34375 L 23.148438 77.40625 L 24.691406 77.40625 L 24.691406 76.59375 L 23.148438 76.59375 Z M 23.148438 74.59375 "/>
<path style=" stroke:none;fill-rule:nonzero;fill:rgb(0%,0%,0%);fill-opacity:1;" d="M 28.449219 76.425781 C 27.722656 76.425781 27.117188 76.570312 26.660156 76.863281 C 26.160156 77.175781 25.847656 77.65625 25.699219 78.320312 L 26.660156 78.382812 C 26.761719 77.988281 26.949219 77.695312 27.285156 77.488281 C 27.574219 77.300781 27.949219 77.21875 28.386719 77.21875 C 29.472656 77.21875 30.011719 77.738281 30.011719 78.78125 L 30.011719 79.113281 L 28.535156 79.132812 C 27.597656 79.132812 26.867188 79.320312 26.367188 79.65625 C 25.785156 80.007812 25.511719 80.550781 25.511719 81.257812 C 25.511719 81.757812 25.699219 82.175781 26.097656 82.507812 C 26.472656 82.820312 26.949219 82.96875 27.574219 82.96875 C 28.160156 82.96875 28.679688 82.84375 29.136719 82.59375 C 29.511719 82.363281 29.847656 82.09375 30.074219 81.757812 L 30.074219 82.800781 L 30.972656 82.800781 L 30.972656 78.820312 C 30.972656 78.09375 30.785156 77.53125 30.429688 77.132812 C 29.992188 76.65625 29.347656 76.425781 28.449219 76.425781 Z M 30.011719 79.820312 L 30.011719 80.34375 C 30.011719 80.84375 29.785156 81.257812 29.347656 81.632812 C 28.886719 82.03125 28.367188 82.21875 27.785156 82.21875 C 27.410156 82.21875 27.097656 82.113281 26.847656 81.945312 C 26.617188 81.738281 26.492188 81.507812 26.492188 81.238281 C 26.492188 80.320312 27.199219 79.863281 28.597656 79.84375 Z M 30.011719 79.820312 "/>
<path style=" stroke:none;fill-rule:nonzero;fill:rgb(0%,0%,0%);fill-opacity:1;" d="M 34.117188 74.59375 L 33.179688 74.988281 L 33.179688 76.59375 L 31.929688 76.59375 L 31.929688 77.40625 L 33.179688 77.40625 L 33.179688 81.34375 C 33.179688 81.820312 33.261719 82.15625 33.46875 82.40625 C 33.679688 82.675781 34.054688 82.800781 34.574219 82.800781 L 35.492188 82.800781 L 35.492188 81.988281 L 34.699219 81.988281 C 34.492188 81.988281 34.34375 81.945312 34.261719 81.84375 C 34.15625 81.738281 34.117188 81.570312 34.117188 81.34375 L 34.117188 77.40625 L 35.65625 77.40625 L 35.65625 76.59375 L 34.117188 76.59375 Z M 34.117188 74.59375 "/>
<path style=" stroke:none;fill-rule:nonzero;fill:rgb(0%,0%,0%);fill-opacity:1;" d="M 39.273438 76.425781 C 38.375 76.425781 37.667969 76.757812 37.148438 77.40625 C 36.625 78.007812 36.355469 78.78125 36.355469 79.695312 C 36.355469 80.695312 36.625 81.488281 37.1875 82.09375 C 37.710938 82.675781 38.4375 82.96875 39.3125 82.96875 C 40.125 82.96875 40.773438 82.738281 41.292969 82.28125 C 41.710938 81.882812 42 81.40625 42.125 80.800781 L 41.167969 80.800781 C 41.023438 81.238281 40.8125 81.570312 40.542969 81.78125 C 40.230469 82.03125 39.8125 82.15625 39.3125 82.15625 C 38.730469 82.15625 38.25 81.96875 37.917969 81.59375 C 37.585938 81.195312 37.417969 80.65625 37.355469 79.96875 L 42.25 79.96875 C 42.230469 78.882812 42 78.03125 41.542969 77.445312 C 41.023438 76.757812 40.273438 76.425781 39.273438 76.425781 Z M 39.3125 77.238281 C 40.480469 77.238281 41.148438 77.882812 41.25 79.21875 L 37.375 79.21875 C 37.4375 78.613281 37.625 78.132812 37.980469 77.78125 C 38.3125 77.40625 38.75 77.238281 39.3125 77.238281 Z M 39.3125 77.238281 "/>
<path style=" stroke:none;fill-rule:nonzero;fill:rgb(0%,0%,0%);fill-opacity:1;" d="M 14.171875 15.269531 C 12.882812 15.269531 11.882812 15.6875 11.132812 16.5625 C 10.421875 17.375 10.070312 18.4375 10.070312 19.730469 C 10.070312 21.019531 10.421875 22.0625 11.132812 22.875 C 11.882812 23.730469 12.882812 24.167969 14.171875 24.167969 C 15.445312 24.167969 16.464844 23.730469 17.214844 22.875 C 17.902344 22.0625 18.277344 21.019531 18.277344 19.730469 C 18.277344 18.417969 17.902344 17.355469 17.214844 16.542969 C 16.464844 15.6875 15.445312 15.269531 14.171875 15.269531 Z M 14.171875 16.144531 C 15.152344 16.144531 15.921875 16.457031 16.484375 17.125 C 17.007812 17.769531 17.277344 18.644531 17.277344 19.730469 C 17.277344 20.8125 17.007812 21.667969 16.484375 22.3125 C 15.921875 22.957031 15.152344 23.292969 14.171875 23.292969 C 13.171875 23.292969 12.402344 22.957031 11.839844 22.292969 C 11.320312 21.644531 11.046875 20.792969 11.046875 19.730469 C 11.046875 18.667969 11.320312 17.8125 11.839844 17.167969 C 12.421875 16.480469 13.195312 16.144531 14.171875 16.144531 Z M 14.171875 16.144531 "/>
<path style=" stroke:none;fill-rule:nonzero;fill:rgb(0%,0%,0%);fill-opacity:1;" d="M 19.523438 17.792969 L 19.523438 21.644531 C 19.523438 23.3125 20.25 24.167969 21.773438 24.167969 C 22.605469 24.167969 23.292969 23.792969 23.792969 23.042969 L 23.792969 24 L 24.75 24 L 24.75 17.792969 L 23.792969 17.792969 L 23.792969 21.582031 C 23.710938 22.105469 23.523438 22.542969 23.167969 22.875 C 22.855469 23.1875 22.480469 23.355469 22.0625 23.355469 C 21.5 23.355469 21.105469 23.1875 20.855469 22.917969 C 20.605469 22.625 20.480469 22.167969 20.480469 21.582031 L 20.480469 17.792969 Z M 19.523438 17.792969 "/>
<path style=" stroke:none;fill-rule:nonzero;fill:rgb(0%,0%,0%);fill-opacity:1;" d="M 27.886719 15.792969 L 26.949219 16.1875 L 26.949219 17.792969 L 25.699219 17.792969 L 25.699219 18.605469 L 26.949219 18.605469 L 26.949219 22.542969 C 26.949219 23.019531 27.035156 23.355469 27.242188 23.605469 C 27.449219 23.875 27.824219 24 28.347656 24 L 29.261719 24 L 29.261719 23.1875 L 28.472656 23.1875 C 28.261719 23.1875 28.117188 23.144531 28.035156 23.042969 C 27.929688 22.9375 27.886719 22.769531 27.886719 22.542969 L 27.886719 18.605469 L 29.429688 18.605469 L 29.429688 17.792969 L 27.886719 17.792969 Z M 27.886719 15.792969 "/>
<path style=" stroke:none;fill-rule:nonzero;fill:rgb(0%,0%,0%);fill-opacity:1;" d="M 33.460938 17.625 C 32.523438 17.625 31.835938 18.019531 31.398438 18.8125 L 31.398438 17.792969 L 30.503906 17.792969 L 30.503906 26.375 L 31.460938 26.375 L 31.460938 22.875 C 31.941406 23.730469 32.628906 24.167969 33.503906 24.167969 C 34.398438 24.167969 35.085938 23.832031 35.585938 23.1875 C 36.042969 22.582031 36.273438 21.832031 36.273438 20.917969 C 36.273438 19.980469 36.042969 19.230469 35.566406 18.625 C 35.066406 17.957031 34.355469 17.625 33.460938 17.625 Z M 33.335938 18.417969 C 34.003906 18.417969 34.503906 18.667969 34.855469 19.167969 C 35.148438 19.605469 35.292969 20.1875 35.292969 20.917969 C 35.292969 21.667969 35.148438 22.25 34.835938 22.6875 C 34.480469 23.144531 33.980469 23.375 33.292969 23.375 C 32.730469 23.375 32.292969 23.144531 31.941406 22.707031 C 31.585938 22.269531 31.417969 21.6875 31.417969 20.980469 L 31.417969 20.855469 C 31.417969 20.167969 31.585938 19.582031 31.898438 19.144531 C 32.230469 18.667969 32.710938 18.417969 33.335938 18.417969 Z M 33.335938 18.417969 "/>
<path style=" stroke:none;fill-rule:nonzero;fill:rgb(0%,0%,0%);fill-opacity:1;" d="M 37.535156 17.792969 L 37.535156 21.644531 C 37.535156 23.3125 38.265625 24.167969 39.785156 24.167969 C 40.617188 24.167969 41.304688 23.792969 41.804688 23.042969 L 41.804688 24 L 42.765625 24 L 42.765625 17.792969 L 41.804688 17.792969 L 41.804688 21.582031 C 41.722656 22.105469 41.535156 22.542969 41.179688 22.875 C 40.867188 23.1875 40.492188 23.355469 40.078125 23.355469 C 39.515625 23.355469 39.117188 23.1875 38.867188 22.917969 C 38.617188 22.625 38.492188 22.167969 38.492188 21.582031 L 38.492188 17.792969 Z M 37.535156 17.792969 "/>
<path style=" stroke:none;fill-rule:nonzero;fill:rgb(0%,0%,0%);fill-opacity:1;" d="M 45.902344 15.792969 L 44.964844 16.1875 L 44.964844 17.792969 L 43.714844 17.792969 L 43.714844 18.605469 L 44.964844 18.605469 L 44.964844 22.542969 C 44.964844 23.019531 45.046875 23.355469 45.253906 23.605469 C 45.464844 23.875 45.839844 24 46.359375 24 L 47.277344 24 L 47.277344 23.1875 L 46.484375 23.1875 C 46.277344 23.1875 46.128906 23.144531 46.046875 23.042969 C 45.941406 22.9375 45.902344 22.769531 45.902344 22.542969 L 45.902344 18.605469 L 47.441406 18.605469 L 47.441406 17.792969 L 45.902344 17.792969 Z M 45.902344 15.792969 "/>
<path style=" stroke:none;fill-rule:nonzero;fill:rgb(0%,0%,0%);fill-opacity:1;" d="M 91.003906 14.914062 L 89.085938 11.015625 L 88.441406 11.015625 L 86.503906 14.914062 L 87.230469 14.914062 L 88.753906 11.828125 L 90.292969 14.914062 Z M 91.003906 14.914062 "/>
<path style=" stroke:none;fill-rule:nonzero;fill:rgb(0%,0%,0%);fill-opacity:1;" d="M 164.816406 14.914062 L 162.898438 11.015625 L 162.253906 11.015625 L 160.316406 14.914062 L 161.046875 14.914062 L 162.566406 11.828125 L 164.109375 14.914062 Z M 164.816406 14.914062 "/>
<path style=" stroke:none;fill-rule:nonzero;fill:rgb(0%,0%,0%);fill-opacity:1;" d="M 228.300781 14.914062 L 226.382812 11.015625 L 225.738281 11.015625 L 223.800781 14.914062 L 224.527344 14.914062 L 226.050781 11.828125 L 227.589844 14.914062 Z M 228.300781 14.914062 "/>
<path style="fill-rule:nonzero;fill:rgb(40.000001%,74.901962%,100%);fill-opacity:1;stroke-width:1;stroke-linecap:round;stroke-linejoin:round;stroke:rgb(0%,0%,0%);stroke-opacity:1;stroke-miterlimit:10;" d="M 72.941406 150.553711 L 98.942383 150.553711 L 98.942383 170.554688 L 72.941406 170.554688 Z M 72.941406 150.553711 " transform="matrix(1.333333,0,0,1.333333,-17.333333,-92)"/>
<path style=" stroke:none;fill-rule:nonzero;fill:rgb(0%,0%,0%);fill-opacity:1;" d="M 89.503906 119.824219 C 89.335938 118.992188 89.191406 118.78125 88.898438 118.78125 C 88.605469 118.78125 88.210938 118.867188 87.480469 119.136719 L 87.355469 119.179688 L 87.398438 119.367188 L 87.605469 119.304688 C 87.835938 119.242188 87.980469 119.21875 88.066406 119.21875 C 88.378906 119.21875 88.460938 119.324219 88.628906 120.03125 L 88.960938 121.53125 L 87.980469 122.929688 C 87.730469 123.28125 87.503906 123.511719 87.355469 123.511719 C 87.292969 123.511719 87.167969 123.46875 87.042969 123.40625 C 86.898438 123.324219 86.773438 123.261719 86.667969 123.261719 C 86.441406 123.261719 86.253906 123.46875 86.253906 123.699219 C 86.253906 124.011719 86.480469 124.199219 86.855469 124.199219 C 87.230469 124.199219 87.480469 124.09375 88.003906 123.386719 L 89.066406 121.96875 L 89.398438 123.386719 C 89.542969 123.992188 89.730469 124.199219 90.105469 124.199219 C 90.566406 124.199219 90.878906 123.929688 91.585938 122.84375 L 91.398438 122.71875 C 91.292969 122.84375 91.253906 122.929688 91.148438 123.074219 C 90.878906 123.429688 90.730469 123.554688 90.585938 123.554688 C 90.417969 123.554688 90.316406 123.386719 90.230469 123.054688 L 89.835938 121.449219 C 89.773438 121.15625 89.730469 120.992188 89.730469 120.90625 C 90.273438 119.992188 90.710938 119.449219 90.917969 119.449219 C 91.210938 119.449219 91.316406 119.65625 91.542969 119.65625 C 91.773438 119.65625 91.941406 119.46875 91.941406 119.21875 C 91.941406 118.96875 91.753906 118.78125 91.460938 118.78125 C 90.941406 118.78125 90.480469 119.21875 89.648438 120.492188 Z M 89.503906 119.824219 "/>
<path style=" stroke:none;fill-rule:nonzero;fill:rgb(0%,0%,0%);fill-opacity:1;" d="M 94.289062 124.65625 L 93.644531 124.65625 L 93.871094 123.824219 C 93.871094 123.804688 93.871094 123.761719 93.871094 123.761719 C 93.871094 123.71875 93.851562 123.699219 93.808594 123.699219 C 93.769531 123.699219 93.726562 123.71875 93.683594 123.78125 C 93.394531 124.21875 92.871094 124.59375 92.621094 124.65625 C 92.433594 124.699219 92.371094 124.761719 92.371094 124.867188 C 92.371094 124.867188 92.371094 124.886719 92.371094 124.90625 L 92.976562 124.90625 L 92.351562 127.28125 C 92.289062 127.53125 92.226562 127.78125 92.226562 127.867188 C 92.226562 128.074219 92.371094 128.15625 92.582031 128.15625 C 92.996094 128.15625 93.246094 127.929688 93.726562 127.199219 L 93.621094 127.136719 C 93.226562 127.636719 93.101562 127.761719 92.976562 127.761719 C 92.914062 127.761719 92.851562 127.742188 92.851562 127.636719 C 92.851562 127.617188 92.871094 127.554688 92.871094 127.53125 L 93.558594 124.90625 L 94.246094 124.90625 Z M 94.289062 124.65625 "/>
<path style=" stroke:none;fill-rule:nonzero;fill:rgb(0%,0%,0%);fill-opacity:1;" d="M 98.867188 126.324219 L 98.867188 125.78125 L 94.824219 125.78125 L 94.824219 126.324219 Z M 98.867188 126.324219 "/>
<path style=" stroke:none;fill-rule:nonzero;fill:rgb(0%,0%,0%);fill-opacity:1;" d="M 103.328125 126.96875 L 103.226562 126.929688 C 102.953125 127.386719 102.789062 127.46875 102.453125 127.46875 L 100.578125 127.46875 L 101.890625 126.054688 C 102.601562 125.304688 102.914062 124.699219 102.914062 124.074219 C 102.914062 123.28125 102.351562 122.65625 101.433594 122.65625 C 100.453125 122.65625 99.953125 123.324219 99.789062 124.261719 L 99.953125 124.304688 C 100.265625 123.511719 100.539062 123.261719 101.121094 123.261719 C 101.808594 123.261719 102.226562 123.65625 102.226562 124.386719 C 102.226562 125.074219 101.953125 125.679688 101.183594 126.46875 L 99.765625 127.96875 L 99.765625 128.074219 L 102.890625 128.074219 Z M 103.328125 126.96875 "/>
<path style="fill-rule:nonzero;fill:rgb(40.000001%,74.901962%,100%);fill-opacity:1;stroke-width:1;stroke-linecap:round;stroke-linejoin:round;stroke:rgb(0%,0%,0%);stroke-opacity:1;stroke-miterlimit:10;" d="M 123.554688 150.553711 L 149.555664 150.553711 L 149.555664 170.554688 L 123.554688 170.554688 Z M 123.554688 150.553711 " transform="matrix(1.333333,0,0,1.333333,-17.333333,-92)"/>
<path style=" stroke:none;fill-rule:nonzero;fill:rgb(0%,0%,0%);fill-opacity:1;" d="M 159.179688 119.824219 C 159.011719 118.992188 158.867188 118.78125 158.574219 118.78125 C 158.28125 118.78125 157.886719 118.867188 157.15625 119.136719 L 157.03125 119.179688 L 157.074219 119.367188 L 157.28125 119.304688 C 157.511719 119.242188 157.65625 119.21875 157.742188 119.21875 C 158.054688 119.21875 158.136719 119.324219 158.304688 120.03125 L 158.636719 121.53125 L 157.65625 122.929688 C 157.40625 123.28125 157.179688 123.511719 157.03125 123.511719 C 156.96875 123.511719 156.84375 123.46875 156.71875 123.40625 C 156.574219 123.324219 156.449219 123.261719 156.34375 123.261719 C 156.117188 123.261719 155.929688 123.46875 155.929688 123.699219 C 155.929688 124.011719 156.15625 124.199219 156.53125 124.199219 C 156.90625 124.199219 157.15625 124.09375 157.679688 123.386719 L 158.742188 121.96875 L 159.074219 123.386719 C 159.21875 123.992188 159.40625 124.199219 159.78125 124.199219 C 160.242188 124.199219 160.554688 123.929688 161.261719 122.84375 L 161.074219 122.71875 C 160.96875 122.84375 160.929688 122.929688 160.824219 123.074219 C 160.554688 123.429688 160.40625 123.554688 160.261719 123.554688 C 160.09375 123.554688 159.992188 123.386719 159.90625 123.054688 L 159.511719 121.449219 C 159.449219 121.15625 159.40625 120.992188 159.40625 120.90625 C 159.949219 119.992188 160.386719 119.449219 160.59375 119.449219 C 160.886719 119.449219 160.992188 119.65625 161.21875 119.65625 C 161.449219 119.65625 161.617188 119.46875 161.617188 119.21875 C 161.617188 118.96875 161.429688 118.78125 161.136719 118.78125 C 160.617188 118.78125 160.15625 119.21875 159.324219 120.492188 Z M 159.179688 119.824219 "/>
<path style=" stroke:none;fill-rule:nonzero;fill:rgb(0%,0%,0%);fill-opacity:1;" d="M 163.964844 124.65625 L 163.320312 124.65625 L 163.546875 123.824219 C 163.546875 123.804688 163.546875 123.761719 163.546875 123.761719 C 163.546875 123.71875 163.527344 123.699219 163.484375 123.699219 C 163.445312 123.699219 163.402344 123.71875 163.359375 123.78125 C 163.070312 124.21875 162.546875 124.59375 162.296875 124.65625 C 162.109375 124.699219 162.046875 124.761719 162.046875 124.867188 C 162.046875 124.867188 162.046875 124.886719 162.046875 124.90625 L 162.652344 124.90625 L 162.027344 127.28125 C 161.964844 127.53125 161.902344 127.78125 161.902344 127.867188 C 161.902344 128.074219 162.046875 128.15625 162.257812 128.15625 C 162.671875 128.15625 162.921875 127.929688 163.402344 127.199219 L 163.296875 127.136719 C 162.902344 127.636719 162.777344 127.761719 162.652344 127.761719 C 162.589844 127.761719 162.527344 127.742188 162.527344 127.636719 C 162.527344 127.617188 162.546875 127.554688 162.546875 127.53125 L 163.234375 124.90625 L 163.921875 124.90625 Z M 163.964844 124.65625 "/>
<path style=" stroke:none;fill-rule:nonzero;fill:rgb(0%,0%,0%);fill-opacity:1;" d="M 168.542969 126.324219 L 168.542969 125.78125 L 164.5 125.78125 L 164.5 126.324219 Z M 168.542969 126.324219 "/>
<path style=" stroke:none;fill-rule:nonzero;fill:rgb(0%,0%,0%);fill-opacity:1;" d="M 172.359375 128.074219 L 172.359375 127.949219 C 171.753906 127.949219 171.609375 127.804688 171.609375 127.46875 L 171.609375 122.699219 L 171.527344 122.65625 L 170.109375 123.386719 L 170.109375 123.511719 L 170.316406 123.429688 C 170.464844 123.367188 170.589844 123.324219 170.671875 123.324219 C 170.839844 123.324219 170.921875 123.449219 170.921875 123.71875 L 170.921875 127.324219 C 170.921875 127.761719 170.753906 127.929688 170.152344 127.949219 L 170.152344 128.074219 Z M 172.359375 128.074219 "/>
<path style="fill-rule:nonzero;fill:rgb(40.000001%,74.901962%,100%);fill-opacity:1;stroke-width:1;stroke-linecap:round;stroke-linejoin:round;stroke:rgb(0%,0%,0%);stroke-opacity:1;stroke-miterlimit:10;" d="M 174.463867 150.553711 L 200.464844 150.553711 L 200.464844 170.554688 L 174.463867 170.554688 Z M 174.463867 150.553711 " transform="matrix(1.333333,0,0,1.333333,-17.333333,-92)"/>
<path style=" stroke:none;fill-rule:nonzero;fill:rgb(0%,0%,0%);fill-opacity:1;" d="M 231.761719 119.824219 C 231.59375 118.992188 231.449219 118.78125 231.15625 118.78125 C 230.867188 118.78125 230.46875 118.867188 229.742188 119.136719 L 229.617188 119.179688 L 229.65625 119.367188 L 229.867188 119.304688 C 230.09375 119.242188 230.242188 119.21875 230.324219 119.21875 C 230.636719 119.21875 230.71875 119.324219 230.886719 120.03125 L 231.21875 121.53125 L 230.242188 122.929688 C 229.992188 123.28125 229.761719 123.511719 229.617188 123.511719 C 229.554688 123.511719 229.429688 123.46875 229.304688 123.40625 C 229.15625 123.324219 229.03125 123.261719 228.929688 123.261719 C 228.699219 123.261719 228.511719 123.46875 228.511719 123.699219 C 228.511719 124.011719 228.742188 124.199219 229.117188 124.199219 C 229.492188 124.199219 229.742188 124.09375 230.261719 123.386719 L 231.324219 121.96875 L 231.65625 123.386719 C 231.804688 123.992188 231.992188 124.199219 232.367188 124.199219 C 232.824219 124.199219 233.136719 123.929688 233.84375 122.84375 L 233.65625 122.71875 C 233.554688 122.84375 233.511719 122.929688 233.40625 123.074219 C 233.136719 123.429688 232.992188 123.554688 232.84375 123.554688 C 232.679688 123.554688 232.574219 123.386719 232.492188 123.054688 L 232.09375 121.449219 C 232.03125 121.15625 231.992188 120.992188 231.992188 120.90625 C 232.53125 119.992188 232.96875 119.449219 233.179688 119.449219 C 233.46875 119.449219 233.574219 119.65625 233.804688 119.65625 C 234.03125 119.65625 234.199219 119.46875 234.199219 119.21875 C 234.199219 118.96875 234.011719 118.78125 233.71875 118.78125 C 233.199219 118.78125 232.742188 119.21875 231.90625 120.492188 Z M 231.761719 119.824219 "/>
<path style=" stroke:none;fill-rule:nonzero;fill:rgb(0%,0%,0%);fill-opacity:1;" d="M 236.546875 124.65625 L 235.902344 124.65625 L 236.132812 123.824219 C 236.132812 123.804688 236.132812 123.761719 236.132812 123.761719 C 236.132812 123.71875 236.109375 123.699219 236.070312 123.699219 C 236.027344 123.699219 235.984375 123.71875 235.945312 123.78125 C 235.652344 124.21875 235.132812 124.59375 234.882812 124.65625 C 234.695312 124.699219 234.632812 124.761719 234.632812 124.867188 C 234.632812 124.867188 234.632812 124.886719 234.632812 124.90625 L 235.234375 124.90625 L 234.609375 127.28125 C 234.546875 127.53125 234.484375 127.78125 234.484375 127.867188 C 234.484375 128.074219 234.632812 128.15625 234.839844 128.15625 C 235.257812 128.15625 235.507812 127.929688 235.984375 127.199219 L 235.882812 127.136719 C 235.484375 127.636719 235.359375 127.761719 235.234375 127.761719 C 235.171875 127.761719 235.109375 127.742188 235.109375 127.636719 C 235.109375 127.617188 235.132812 127.554688 235.132812 127.53125 L 235.820312 124.90625 L 236.507812 124.90625 Z M 236.546875 124.65625 "/>
<path style="fill:none;stroke-width:1;stroke-linecap:round;stroke-linejoin:round;stroke:rgb(0%,0%,0%);stroke-opacity:1;stroke-miterlimit:10;" d="M 85.442383 150.553711 L 85.366211 137.000977 " transform="matrix(1.333333,0,0,1.333333,-17.333333,-92)"/>
<path style="fill:none;stroke-width:1;stroke-linecap:butt;stroke-linejoin:miter;stroke:rgb(0%,0%,0%);stroke-opacity:1;stroke-miterlimit:10;" d="M 85.342773 132.999023 L 85.366211 137.000977 M 83.866211 137.006836 L 85.342773 132.999023 L 86.866211 136.992188 " transform="matrix(1.333333,0,0,1.333333,-17.333333,-92)"/>
<path style="fill:none;stroke-width:1;stroke-linecap:round;stroke-linejoin:round;stroke:rgb(0%,0%,0%);stroke-opacity:1;stroke-miterlimit:10;" d="M 136.213867 150.553711 L 136.067383 137.000977 " transform="matrix(1.333333,0,0,1.333333,-17.333333,-92)"/>
<path style="fill:none;stroke-width:1;stroke-linecap:butt;stroke-linejoin:miter;stroke:rgb(0%,0%,0%);stroke-opacity:1;stroke-miterlimit:10;" d="M 136.023438 132.999023 L 136.067383 137.000977 M 134.567383 137.015625 L 136.023438 132.999023 L 137.567383 136.983398 " transform="matrix(1.333333,0,0,1.333333,-17.333333,-92)"/>
<path style="fill:none;stroke-width:1;stroke-linecap:round;stroke-linejoin:round;stroke:rgb(0%,0%,0%);stroke-opacity:1;stroke-miterlimit:10;" d="M 186.985352 150.553711 L 187.055664 137.000977 " transform="matrix(1.333333,0,0,1.333333,-17.333333,-92)"/>
<path style="fill:none;stroke-width:1;stroke-linecap:butt;stroke-linejoin:miter;stroke:rgb(0%,0%,0%);stroke-opacity:1;stroke-miterlimit:10;" d="M 187.073242 132.999023 L 187.055664 137.000977 M 185.555664 136.992188 L 187.073242 132.999023 L 188.555664 137.006836 " transform="matrix(1.333333,0,0,1.333333,-17.333333,-92)"/>
<path style=" stroke:none;fill-rule:nonzero;fill:rgb(0%,0%,0%);fill-opacity:1;" d="M 17.347656 114.84375 L 17.347656 123.40625 L 18.324219 123.40625 L 18.324219 114.84375 Z M 17.347656 114.84375 "/>
<path style=" stroke:none;fill-rule:nonzero;fill:rgb(0%,0%,0%);fill-opacity:1;" d="M 22.898438 117.03125 C 22.503906 117.03125 22.128906 117.136719 21.792969 117.324219 C 21.441406 117.511719 21.167969 117.761719 20.960938 118.117188 L 20.960938 117.199219 L 20.003906 117.199219 L 20.003906 123.40625 L 20.960938 123.40625 L 20.960938 119.65625 C 21.003906 119.09375 21.167969 118.65625 21.503906 118.324219 C 21.816406 118.011719 22.191406 117.84375 22.628906 117.84375 C 23.710938 117.84375 24.253906 118.449219 24.253906 119.65625 L 24.253906 123.40625 L 25.210938 123.40625 L 25.210938 119.59375 C 25.210938 117.886719 24.441406 117.03125 22.898438 117.03125 Z M 22.898438 117.03125 "/>
<path style=" stroke:none;fill-rule:nonzero;fill:rgb(0%,0%,0%);fill-opacity:1;" d="M 29.667969 117.03125 C 28.730469 117.03125 28.042969 117.429688 27.605469 118.21875 L 27.605469 117.199219 L 26.710938 117.199219 L 26.710938 125.78125 L 27.667969 125.78125 L 27.667969 122.28125 C 28.148438 123.136719 28.835938 123.574219 29.710938 123.574219 C 30.605469 123.574219 31.292969 123.242188 31.792969 122.59375 C 32.253906 121.992188 32.480469 121.242188 32.480469 120.324219 C 32.480469 119.386719 32.253906 118.636719 31.773438 118.03125 C 31.273438 117.367188 30.566406 117.03125 29.667969 117.03125 Z M 29.542969 117.824219 C 30.210938 117.824219 30.710938 118.074219 31.066406 118.574219 C 31.355469 119.011719 31.503906 119.59375 31.503906 120.324219 C 31.503906 121.074219 31.355469 121.65625 31.042969 122.09375 C 30.691406 122.554688 30.191406 122.78125 29.503906 122.78125 C 28.941406 122.78125 28.503906 122.554688 28.148438 122.117188 C 27.792969 121.679688 27.628906 121.09375 27.628906 120.386719 L 27.628906 120.261719 C 27.628906 119.574219 27.792969 118.992188 28.105469 118.554688 C 28.441406 118.074219 28.917969 117.824219 29.542969 117.824219 Z M 29.542969 117.824219 "/>
<path style=" stroke:none;fill-rule:nonzero;fill:rgb(0%,0%,0%);fill-opacity:1;" d="M 33.742188 117.199219 L 33.742188 121.054688 C 33.742188 122.71875 34.472656 123.574219 35.992188 123.574219 C 36.824219 123.574219 37.511719 123.199219 38.011719 122.449219 L 38.011719 123.40625 L 38.972656 123.40625 L 38.972656 117.199219 L 38.011719 117.199219 L 38.011719 120.992188 C 37.929688 121.511719 37.742188 121.949219 37.386719 122.28125 C 37.074219 122.59375 36.699219 122.761719 36.285156 122.761719 C 35.722656 122.761719 35.324219 122.59375 35.074219 122.324219 C 34.824219 122.03125 34.699219 121.574219 34.699219 120.992188 L 34.699219 117.199219 Z M 33.742188 117.199219 "/>
<path style=" stroke:none;fill-rule:nonzero;fill:rgb(0%,0%,0%);fill-opacity:1;" d="M 42.109375 115.199219 L 41.171875 115.59375 L 41.171875 117.199219 L 39.921875 117.199219 L 39.921875 118.011719 L 41.171875 118.011719 L 41.171875 121.949219 C 41.171875 122.429688 41.253906 122.761719 41.460938 123.011719 C 41.671875 123.28125 42.046875 123.40625 42.566406 123.40625 L 43.484375 123.40625 L 43.484375 122.59375 L 42.691406 122.59375 C 42.484375 122.59375 42.335938 122.554688 42.253906 122.449219 C 42.148438 122.34375 42.109375 122.179688 42.109375 121.949219 L 42.109375 118.011719 L 43.648438 118.011719 L 43.648438 117.199219 L 42.109375 117.199219 Z M 42.109375 115.199219 "/>
</g>
</svg>
